# xmcd CD database file
#
# Track frame offsets:
#	150
#	13717
#	30207
#	47267
#	57000
#	71512
#	84540
#	98290
#	115062
#	126102
#
# Disc length: 1885 seconds
#
# Revision: 1
# Processed by: cddbd v1.5.2PL0 Copyright (c) Steve Scherf et al.
# Submitted via: CDex 1.51
#
DISCID=67075b0a
DTITLE=Merle Haggard - THIS IS FOR YOU
DYEAR=1996
DGENRE=Country
TTITLE0=BIG CITY
TTITLE1=THE LAST BOAT OF THE DAY
TTITLE2=IT'S ALL IN THE GAME
TTITLE3=I WONDER WHERE I'LL FIND YOU TONIGHT
TTITLE4=ALMOST PERSUADED
TTITLE5=THE FARMER'S DAUGHTER
TTITLE6=THIS COLD WAR WITH YOU
TTITLE7=WE NEVER TOUCH AT ALL
TTITLE8=SUSIE
TTITLE9=TWINKLE, TWINKLE LUCKY STAR
EXTD=YEAR: 1996
EXTT0=
EXTT1=
EXTT2=
EXTT3=
EXTT4=
EXTT5=
EXTT6=
EXTT7=
EXTT8=
EXTT9=
PLAYORDER=
